<svg width="479.701220703125px" height="336.8375px" xmlns="http://www.w3.org/2000/svg" viewBox="10.149389648437506 -93.41874999999999 479.701220703125 336.8375" style="background: rgba(0, 0, 0, 0);" preserveAspectRatio="xMidYMid"><defs><filter id="editing-extrude-glow"><feFlood flood-color="#333333" result="flood-1"></feFlood><feMorphology operator="erode" radius="1" in="SourceAlpha" result="erode"></feMorphology><feComposite operator="in" in="flood-1" in2="erode" result="comp1"></feComposite><feConvolveMatrix order="3,3" divisor="1" in="comp1" result="convolve" kernelMatrix="0 0 0 1 1 1 0 0 0"></feConvolveMatrix><feOffset dx="-3" dy="0" in="convolve" result="extrude"></feOffset><feComposite operator="in" in="flood-1" in2="extrude" result="comp-extrude"></feComposite><feFlood flood-color="#000000" result="flood-2"></feFlood><feComposite operator="in" in="flood-2" in2="SourceAlpha" result="comp2"></feComposite><feMorphology operator="dilate" radius="1" in="comp2" result="dilate"></feMorphology><feOffset dx="-4.5" dy="0" in="dilate" result="offset"></feOffset><feGaussianBlur in="offset" stdDeviation="5.8" result="blur"></feGaussianBlur><feComponentTransfer in="blur" result="shadow"><feFuncA type="linear" slope="0.8" intercept="-0.2"></feFuncA></feComponentTransfer><feMerge><feMergeNode in="shadow"></feMergeNode><feMergeNode in="comp-extrude"></feMergeNode><feMergeNode in="SourceGraphic"></feMergeNode></feMerge></filter></defs><g filter="url(#editing-extrude-glow)"><g transform="translate(92.6015739440918, 162.1999969482422)"><path d="M-21.80 27.60L-21.80 27.60L-21.80 27.60Q-11.60 26.40-5.20 13.20L-5.20 13.20L-5.20 13.20Q1.40-0.20 7.40-31L7.40-31L26.80-132L70.20-132L50.80-31L50.80-31Q43.40 8.20 31.20 23.60L31.20 23.60L31.20 23.60Q24.80 31.60 16.70 34.80L16.70 34.80L16.70 34.80Q8.60 38-0.20 38L-0.20 38L-0.20 38Q-9 38-14.70 34.80L-14.70 34.80L-14.70 34.80Q-20.40 31.60-21.80 27.60ZM90.60-97.40L90.60-97.40L90.60-97.40Q83.80-102.60 83.80-113.70L83.80-113.70L83.80-113.70Q83.80-124.80 91.10-130.60L91.10-130.60L91.10-130.60Q98.40-136.40 111-136.40L111-136.40L111-136.40Q119-136.40 138-133.60L138-133.60L151.60-131.60L151.60-131.60Q158.40-130.80 165.50-130.80L165.50-130.80L165.50-130.80Q172.60-130.80 177.40-133.80L177.40-133.80L177.40-133.80Q184.60-127.40 184.60-118.20L184.60-118.20L184.60-118.20Q184.60-109 176.40-102.40L176.40-102.40L176.40-102.40Q168-95.40 157.20-95.40L157.20-95.40L157.20-95.40Q152-95.40 143.60-96.80L143.60-96.80L143.60-96.80Q133.80-66 133.80-44.60L133.80-44.60L133.80-44.60Q133.80-23.20 144.60-12L144.60-12L144.60-12Q139.60-3 132.20 0.50L132.20 0.50L132.20 0.50Q124.80 4 113.70 4L113.70 4L113.70 4Q102.60 4 95.70-2.10L95.70-2.10L95.70-2.10Q88.80-8.20 88.80-20.80L88.80-20.80L88.80-20.80Q88.80-35.40 96.80-59.40L96.80-59.40L96.80-59.40Q104.80-83.20 116.80-101.40L116.80-101.40L116.80-101.40Q111-102 105-102L105-102L105-102Q92.60-102 90.60-97.40ZM252.80-15L252.80-15L252.80-15Q252.80-29 258.40-57L258.40-57L228.80-57L217.80 0L176 0L201.40-132L243.60-132L232-73L261.60-73L272.60-132L314.80-132L314.80-132Q312-117.20 308.40-100.60L308.40-100.60L301.60-68L301.60-68Q294-30 294-13.40L294-13.40L294-13.40Q294-6.60 296.20-2.80L296.20-2.80L296.20-2.80Q286.20 4 274.50 4L274.50 4L274.50 4Q262.80 4 257.80-1.60L257.80-1.60L257.80-1.60Q252.80-7.20 252.80-15Z" fill="#eb6c6c"></path></g></g><style>text {
  font-size: 64px;
  font-family: Arial Black;
  dominant-baseline: central;
  text-anchor: middle;
}</style></svg>